<svg xmlns="http://www.w3.org/2000/svg" xmlns:svg="http://www.w3.org/2000/svg" id="svg1566" version="1.1" viewBox="0 0 650 400"><metadata id="metadata1572"/><clipPath id="box"><rect style="fill:none;stroke:none" id="rect1551" width="650" height="400" x="0" y="0"/></clipPath><g id="g1564" clip-path="url(#box)"><rect style="fill:#fff;stroke:none" id="rect1554" width="650" height="400" x="0" y="0"/><path style="fill:none;stroke:#000;stroke-width:1" id="path1556" d="M 28.71,0 V 368.85875"/><path style="fill:none;stroke:#000;stroke-width:1" id="path1558" d="M 28.260154,368.35 H 650"/><path style="fill:none;stroke:#000;stroke-width:1" id="path1560" d="m 28.75,52.05 0.01,0.02 0.27,1 0.27,0.99 0.28,1 0.27,1 0.28,0.99 0.27,1 0.28,1 0.28,0.99 0.28,1 0.28,1 0.28,1 0.28,0.99 0.28,1 0.28,1 0.29,0.99 0.28,1 0.29,1 0.29,0.99 0.29,1 0.28,1 0.29,0.99 0.3,1 0.29,1 0.29,0.99 0.29,1 0.3,1 0.3,0.99 0.29,1 0.3,0.99 0.3,1 0.3,1 0.3,0.99 0.3,1 0.31,1 0.3,0.99 0.31,1 0.3,1 0.31,0.99 0.31,1 0.31,1 0.31,0.99 0.31,1 0.32,1 0.31,0.99 0.32,1 0.31,0.99 0.32,1 0.32,1 0.32,0.99 0.32,1 0.33,1 0.32,0.99 0.32,1 0.33,0.99 0.33,1 0.33,1 0.33,0.99 0.33,1 0.33,1 0.33,0.99 0.34,1 0.34,0.99 0.33,1 0.34,1 0.34,0.99 0.35,1 0.34,0.99 0.34,1 0.35,1 0.35,0.99 0.34,1 0.36,0.99 0.35,1 0.35,1 0.35,0.99 0.36,1 0.36,0.99 0.36,1 0.36,1 0.36,0.99 0.36,1 0.37,0.99 0.36,1 0.37,0.99 0.37,1 0.37,1 0.37,0.99 0.38,1 0.37,0.99 0.38,1 0.38,0.99 0.38,1 0.38,1 0.39,0.99 0.38,1 0.39,0.99 0.39,1 0.39,0.99 0.4,1 0.39,0.99 0.4,1 0.4,0.99 0.4,1 0.4,1 0.4,0.99 0.41,1 0.41,0.99 0.41,1 0.41,0.99 0.41,1 0.42,0.99 0.41,1 0.42,0.99 0.43,1 0.42,0.99 0.43,1 0.42,0.99 0.43,1 0.44,0.99 0.43,1 0.44,0.99 0.44,1 0.44,0.99 0.44,1 0.45,0.99 0.44,1 0.45,0.99 0.46,1 0.45,0.99 0.46,1 0.46,0.99 0.46,1 0.47,0.99 0.46,0.99 0.47,1 0.48,0.99 0.47,1 0.48,0.99 0.48,1 0.48,0.99 0.49,1 0.49,0.99 0.49,0.99 0.49,1 0.5,0.99 0.5,1 0.5,0.99 0.51,1 0.5,0.99 0.52,0.99 0.51,1 0.52,0.99 0.52,1 0.52,0.99 0.53,0.99 0.53,1 0.53,0.99 0.54,1 0.54,0.99 0.54,0.99 0.55,1 0.55,0.99 0.55,0.99 0.56,1 0.56,0.99 0.57,0.99 0.57,1 0.57,0.99 0.57,0.99 0.58,1 0.59,0.99 0.59,0.99 0.59,1 0.59,0.99 0.6,0.99 0.61,1 0.61,0.99 0.61,0.99 0.61,1 0.63,0.99 0.62,0.99 0.63,0.99 0.64,1 0.64,0.99 0.64,0.99 0.65,0.99 0.66,1 0.65,0.99 0.67,0.99 0.67,0.99 0.67,1 0.68,0.99 0.69,0.99 0.69,0.99 0.69,0.99 0.71,1 0.7,0.99 0.72,0.99 0.72,0.99 0.72,0.99 0.73,1 0.74,0.99 0.74,0.99 0.76,0.99 0.75,0.99 0.77,0.99 0.77,0.99 0.77,0.99 0.79,1 0.79,0.99 0.8,0.99 0.8,0.99 0.82,0.99 0.82,0.99 0.83,0.99 0.83,0.99 0.85,0.99 0.85,0.99 0.86,0.99 0.88,0.99 0.87,0.99 0.89,0.99 0.9,0.99 0.91,0.99 0.91,0.99 0.93,0.99 0.94,0.99 0.94,0.99 0.96,0.99 0.97,0.98 0.97,0.99 0.99,0.99 1,0.99 1.02,0.99 1.02,0.99 1.04,0.98 1.05,0.99 1.06,0.99 1.07,0.99 1.09,0.99 1.1,0.98 1.12,0.99 1.13,0.99 1.14,0.98 1.16,0.99 1.18,0.99 1.19,0.98 1.21,0.99 1.23,0.99 1.24,0.98 1.26,0.99 1.28,0.98 1.3,0.99 1.32,0.98 1.33,0.99 1.36,0.98 1.38,0.99 1.41,0.98 1.42,0.98 1.45,0.99 1.47,0.98 1.5,0.98 1.53,0.99 1.55,0.98 1.58,0.98 1.61,0.98 1.64,0.98 1.67,0.98 1.7,0.98 1.73,0.99 1.77,0.98 1.81,0.97 1.85,0.98 1.88,0.98 1.93,0.98 1.97,0.98 2,0.97 2,0.95 2,0.92 2,0.91 2,0.88 2,0.87 2,0.84 2,0.83 2,0.8 2,0.79 2,0.77 2,0.75 2,0.73 2,0.72 2,0.7 2,0.69 2,0.67 2,0.65 2,0.64 2,0.62 2,0.61 2,0.6 2,0.58 2,0.57 2,0.56 2,0.54 2,0.53 2,0.52 2,0.5 2,0.5 2,0.48 2,0.48 2,0.46 2,0.45 2,0.44 2,0.43 2,0.42 2,0.41 2,0.4 2,0.39 2,0.39 2,0.37 2,0.37 2,0.36 2,0.34 2,0.35 2,0.33 2,0.33 2,0.31 2,0.31 2,0.31 2,0.3 2,0.29 2,0.28 2,0.28 2,0.27 2,0.26 2,0.26 2,0.25 2,0.25 2,0.24 2,0.23 2,0.23 2,0.23 2,0.22 2,0.21 2,0.21 2,0.21 2,0.2 2,0.19 2,0.19 2,0.19 2,0.18 2,0.18 2,0.18 2,0.17 2,0.16 2,0.16 2,0.16 2,0.16 2,0.15 2,0.15 2,0.14 2,0.14 2,0.14 2,0.14 2,0.13 2,0.13 2,0.12 2,0.12 2,0.12 2,0.12 2,0.12 2,0.11 2,0.11 2,0.1 2,0.11 2,0.1 2,0.1 2,0.1 2,0.09 2,0.1 2,0.09 2,0.09 2,0.08 2,0.09 2,0.08 2,0.08 2,0.08 2,0.08 2,0.07 2,0.08 2,0.07 2,0.07 2,0.07 2,0.06 2,0.07 2,0.06 2,0.07 2,0.06 2,0.06 2,0.06 2,0.05 2,0.06 2,0.05 2,0.06 2,0.05 2,0.05 2,0.05 2,0.05 2,0.05 2,0.04 2,0.05 2,0.04 2,0.04 2,0.05 2,0.04 2,0.04 2,0.04 2,0.04 2,0.03 2,0.04 2,0.04 2,0.03 2,0.04 2,0.03 2,0.03 2,0.03 2,0.04 2,0.03 2,0.03 2,0.02 2,0.03 2,0.03 2,0.03 2,0.02 2,0.03 2,0.03 2,0.02 2,0.03 2,0.02 2,0.02 2,0.02 2,0.03 2,0.02 2,0.02 2,0.02 2,0.02 2,0.02 2,0.02 2,0.02 2,0.02 2,0.01 2,0.02 2,0.02 2,0.01 2,0.02 2,0.02 2,0.01 2,0.02 2,0.01 2,0.02 2,0.01 2,0.01 2,0.02 2,0.01 2,0.01 2,0.02 2,0.01 2,0.01 2,0.01 2,0.01 2,0.02 2,0.01 2,0.01 2,0.01 2,0.01 2,0.01 2,0.01 2,0.01 2,0.01 2,0.01 2,0.01 h 2 l 2,0.01 2,0.01 2,0.01 2,0.01 h 2 l 2,0.01 2,0.01 2,0.01 h 2 l 2,0.01 2,0.01 h 2 l 2,0.01 2,0.01 h 2 l 2,0.01 h 2 l 2,0.01 2,0.01"/></g><text style="font-style:normal;font-weight:400;font-size:40px;line-height:125%;font-family:sans-serif;letter-spacing:0;word-spacing:0;fill:#000;fill-opacity:1;stroke:none;stroke-width:1px;stroke-linecap:butt;stroke-linejoin:miter;stroke-opacity:1" id="text840" x="-206.857" y="22.668" transform="rotate(-90)" xml:space="preserve"><tspan id="tspan838" x="-206.857" y="22.668" style="font-style:normal;font-variant:normal;font-weight:400;font-stretch:normal;font-size:26.66666603px;font-family:sans-serif;-inkscape-font-specification:'sans-serif, Normal';font-variant-ligatures:normal;font-variant-caps:normal;font-variant-numeric:normal;font-feature-settings:normal;text-align:start;writing-mode:lr-tb;text-anchor:start">value of data</tspan></text><text style="font-style:normal;font-variant:normal;font-weight:400;font-stretch:normal;font-size:16px;line-height:125%;font-family:sans-serif;-inkscape-font-specification:'sans-serif, Normal';font-variant-ligatures:normal;font-variant-caps:normal;font-variant-numeric:normal;font-feature-settings:normal;text-align:start;letter-spacing:0;word-spacing:0;writing-mode:lr-tb;text-anchor:start;fill:#000;fill-opacity:1;stroke:none;stroke-width:1px;stroke-linecap:butt;stroke-linejoin:miter;stroke-opacity:1" id="text840-3" x="574.259" y="392.531" xml:space="preserve"><tspan id="tspan1437" x="574.259" y="392.531" style="font-style:normal;font-variant:normal;font-weight:400;font-stretch:normal;font-size:26.66666603px;font-family:sans-serif;-inkscape-font-specification:'sans-serif, Normal';font-variant-ligatures:normal;font-variant-caps:normal;font-variant-numeric:normal;font-feature-settings:normal;text-align:start;writing-mode:lr-tb;text-anchor:start">time</tspan></text><path style="fill:none;stroke:#000;stroke-width:.87526917" id="path824-7" d="m 28.88574,177.57268 476.98221,0.281"/><path style="fill:none;stroke:#000;stroke-width:.26795986" id="path824-7-9" d="m 506.14727,200.36487 0.28486,-44.09993"/><path style="fill:none;fill-rule:evenodd;stroke:#000;stroke-width:1px;stroke-linecap:butt;stroke-linejoin:miter;stroke-opacity:1" id="path1372-0-4-4" d="m 497.0349,182.16505 c 8.8681,-4.24126 8.83305,-4.31137 8.83305,-4.31137 0,0 -9.00831,4.59178 -8.83305,4.31137 z"/><path style="fill:none;fill-rule:evenodd;stroke:#000;stroke-width:1px;stroke-linecap:butt;stroke-linejoin:miter;stroke-opacity:1" id="path1372-0-4-8-6" d="m 497.0349,173.54231 c 8.8681,4.24126 8.83305,4.31137 8.83305,4.31137 0,0 -9.00831,-4.59178 -8.83305,-4.31137 z"/><path style="fill:none;fill-rule:evenodd;stroke:#000;stroke-width:1px;stroke-linecap:butt;stroke-linejoin:miter;stroke-opacity:1" id="path1372-0-4-0" d="m 37.71879,181.88405 c -8.8681,-4.24126 -8.83305,-4.31137 -8.83305,-4.31137 0,0 9.00831,4.59178 8.83305,4.31137 z"/><path style="fill:none;fill-rule:evenodd;stroke:#000;stroke-width:1px;stroke-linecap:butt;stroke-linejoin:miter;stroke-opacity:1" id="path1372-0-4-8-1" d="m 37.71879,173.26131 c -8.8681,4.24126 -8.83305,4.31137 -8.83305,4.31137 0,0 9.00831,-4.59178 8.83305,-4.31137 z"/><text style="font-style:normal;font-variant:normal;font-weight:400;font-stretch:normal;font-size:16px;line-height:125%;font-family:sans-serif;-inkscape-font-specification:'sans-serif, Normal';font-variant-ligatures:normal;font-variant-caps:normal;font-variant-numeric:normal;font-feature-settings:normal;text-align:start;letter-spacing:0;word-spacing:0;writing-mode:lr-tb;text-anchor:start;fill:#000;fill-opacity:1;stroke:none;stroke-width:1px;stroke-linecap:butt;stroke-linejoin:miter;stroke-opacity:1" id="text840-3-7" x="183.471" y="170.046" xml:space="preserve"><tspan id="tspan1437-6" x="183.471" y="170.046" style="font-style:normal;font-variant:normal;font-weight:400;font-stretch:normal;font-size:26.66666667px;font-family:sans-serif;-inkscape-font-specification:'sans-serif, Normal';font-variant-ligatures:normal;font-variant-caps:normal;font-variant-numeric:normal;font-feature-settings:normal;text-align:start;writing-mode:lr;text-anchor:start">retention window</tspan></text><path style="fill:none;fill-rule:evenodd;stroke:#000;stroke-width:1px;stroke-linecap:butt;stroke-linejoin:miter;stroke-opacity:1" id="path1372" d="m 28.71,0 c -4.241264,8.868097 -4.311368,8.833046 -4.311368,8.833046 0,0 4.591782,-9.008305 4.311368,-8.833046 z"/><path style="fill:none;fill-rule:evenodd;stroke:#000;stroke-width:1px;stroke-linecap:butt;stroke-linejoin:miter;stroke-opacity:1" id="path1372-0" d="m 28.71,0 c 4.241264,8.868097 4.311368,8.833046 4.311368,8.833046 0,0 -4.591782,-9.008305 -4.311368,-8.833046 z"/><path style="fill:none;fill-rule:evenodd;stroke:#000;stroke-width:1px;stroke-linecap:butt;stroke-linejoin:miter;stroke-opacity:1" id="path1372-0-4" d="M 641.16695,372.66137 C 650.03505,368.42011 650,368.35 650,368.35 c 0,0 -9.00831,4.59178 -8.83305,4.31137 z"/><path style="fill:none;fill-rule:evenodd;stroke:#000;stroke-width:1px;stroke-linecap:butt;stroke-linejoin:miter;stroke-opacity:1" id="path1372-0-4-8" d="M 641.16695,364.03863 C 650.03505,368.27989 650,368.35 650,368.35 c 0,0 -9.00831,-4.59178 -8.83305,-4.31137 z"/></svg>