<svg xmlns="http://www.w3.org/2000/svg" xmlns:svg="http://www.w3.org/2000/svg" id="svg1566" version="1.1" viewBox="0 0 650 400"><metadata id="metadata1572"/><clipPath id="box"><rect style="fill:none;stroke:none" id="rect1551" width="650" height="400" x="0" y="0"/></clipPath><g id="g1564" clip-path="url(#box)"><rect style="fill:#fff;stroke:none" id="rect1554" width="650" height="400" x="0" y="0"/><path style="fill:none;stroke:#000;stroke-width:1" id="path1556" d="M 28.71,0 V 368.85875"/><path style="fill:none;stroke:#000;stroke-width:1" id="path1558" d="M 28.260154,368.35 H 650"/><path style="fill:none;stroke:#000;stroke-width:1" id="path1562" d="m 28.76,128.11681 h 2 2 2 2 2 2 2 2 2 2 2 2 2 2 2 2 2 2 2 2 2 2 2 2 2 2 2 2 2 2 2 2 2 2 2 2 2 2 2 2 2 2 2 2 2 2 2 2 2 2 2 2 2 2 2 2 2 2 2 2 2 2 2 2 2 2 2 2 2 2 2 2 2 2 2 2 2 2 2 2 2 2 2 2 2 2 2 2 2 2 2 2 2 2 2 2 2 2 2 2 2 2 2 2 2 2 2 2 2 2 2 2 2 2 2 2 2 2 2 2 2 2 2 2 2 2 2 2 2 2 2 2 2 2 2 2 2 2 2 2 2 2 2 2 2 2 2 2 2 2 2 2 2 2 2 2 2 2 2 2 2 2 2 2 2 2 2 2 2 2 2 2 2 2 2 2 2 2 2 2 2 2 2 2 2 2 2 2 2 2 2 2 2 2 2 2 2 2 2 2 2 2 2 2 2 2 2 2 2 2 2 2 2 2 2 2 2 2 2 2 2 2 2 2 2 2 2 2 2 2 2 2 2 2 2 2 2 2 2 2 2 2 2 2 2 2 2 2 2 2 2 2 2 2 2 2 2 2 2 2 2 2 2 2 2 2 2 2 2 2 2 2 2 2 2 2 2 2 2 2 2 2 2 2 2 2 2 2 2 2 2 2 2 2 2 2 2 2 2 2 2 2 2 2 2 2 2 2 2 2"/></g><text style="font-style:normal;font-weight:400;font-size:40px;line-height:125%;font-family:sans-serif;letter-spacing:0;word-spacing:0;fill:#000;fill-opacity:1;stroke:none;stroke-width:1px;stroke-linecap:butt;stroke-linejoin:miter;stroke-opacity:1" id="text840" x="-206.857" y="22.668" transform="rotate(-90)" xml:space="preserve"><tspan id="tspan838" x="-206.857" y="22.668" style="font-style:normal;font-variant:normal;font-weight:400;font-stretch:normal;font-size:26.66666603px;font-family:sans-serif;-inkscape-font-specification:'sans-serif, Normal';font-variant-ligatures:normal;font-variant-caps:normal;font-variant-numeric:normal;font-feature-settings:normal;text-align:start;writing-mode:lr-tb;text-anchor:start">value of data</tspan></text><text style="font-style:normal;font-variant:normal;font-weight:400;font-stretch:normal;font-size:16px;line-height:125%;font-family:sans-serif;-inkscape-font-specification:'sans-serif, Normal';font-variant-ligatures:normal;font-variant-caps:normal;font-variant-numeric:normal;font-feature-settings:normal;text-align:start;letter-spacing:0;word-spacing:0;writing-mode:lr-tb;text-anchor:start;fill:#000;fill-opacity:1;stroke:none;stroke-width:1px;stroke-linecap:butt;stroke-linejoin:miter;stroke-opacity:1" id="text840-3" x="574.259" y="392.531" xml:space="preserve"><tspan id="tspan1437" x="574.259" y="392.531" style="font-style:normal;font-variant:normal;font-weight:400;font-stretch:normal;font-size:26.66666603px;font-family:sans-serif;-inkscape-font-specification:'sans-serif, Normal';font-variant-ligatures:normal;font-variant-caps:normal;font-variant-numeric:normal;font-feature-settings:normal;text-align:start;writing-mode:lr-tb;text-anchor:start">time</tspan></text><path style="fill:none;stroke:#000;stroke-width:.87526917" id="path824-7" d="m 28.88574,177.57268 476.98221,0.281"/><path style="fill:none;stroke:#000;stroke-width:.26795986" id="path824-7-9" d="m 506.14727,200.36487 0.28486,-44.09993"/><path style="fill:none;fill-rule:evenodd;stroke:#000;stroke-width:1px;stroke-linecap:butt;stroke-linejoin:miter;stroke-opacity:1" id="path1372-0-4-4" d="m 497.0349,182.16505 c 8.8681,-4.24126 8.83305,-4.31137 8.83305,-4.31137 0,0 -9.00831,4.59178 -8.83305,4.31137 z"/><path style="fill:none;fill-rule:evenodd;stroke:#000;stroke-width:1px;stroke-linecap:butt;stroke-linejoin:miter;stroke-opacity:1" id="path1372-0-4-8-6" d="m 497.0349,173.54231 c 8.8681,4.24126 8.83305,4.31137 8.83305,4.31137 0,0 -9.00831,-4.59178 -8.83305,-4.31137 z"/><path style="fill:none;fill-rule:evenodd;stroke:#000;stroke-width:1px;stroke-linecap:butt;stroke-linejoin:miter;stroke-opacity:1" id="path1372-0-4-0" d="m 37.71879,181.88405 c -8.8681,-4.24126 -8.83305,-4.31137 -8.83305,-4.31137 0,0 9.00831,4.59178 8.83305,4.31137 z"/><path style="fill:none;fill-rule:evenodd;stroke:#000;stroke-width:1px;stroke-linecap:butt;stroke-linejoin:miter;stroke-opacity:1" id="path1372-0-4-8-1" d="m 37.71879,173.26131 c -8.8681,4.24126 -8.83305,4.31137 -8.83305,4.31137 0,0 9.00831,-4.59178 8.83305,-4.31137 z"/><text style="font-style:normal;font-variant:normal;font-weight:400;font-stretch:normal;font-size:16px;line-height:125%;font-family:sans-serif;-inkscape-font-specification:'sans-serif, Normal';font-variant-ligatures:normal;font-variant-caps:normal;font-variant-numeric:normal;font-feature-settings:normal;text-align:start;letter-spacing:0;word-spacing:0;writing-mode:lr-tb;text-anchor:start;fill:#000;fill-opacity:1;stroke:none;stroke-width:1px;stroke-linecap:butt;stroke-linejoin:miter;stroke-opacity:1" id="text840-3-7" x="183.471" y="170.046" xml:space="preserve"><tspan id="tspan1437-6" x="183.471" y="170.046" style="font-style:normal;font-variant:normal;font-weight:400;font-stretch:normal;font-size:26.66666667px;font-family:sans-serif;-inkscape-font-specification:'sans-serif, Normal';font-variant-ligatures:normal;font-variant-caps:normal;font-variant-numeric:normal;font-feature-settings:normal;text-align:start;writing-mode:lr;text-anchor:start">retention window</tspan></text><path style="fill:none;fill-rule:evenodd;stroke:#000;stroke-width:1px;stroke-linecap:butt;stroke-linejoin:miter;stroke-opacity:1" id="path1372" d="m 28.71,0 c -4.241264,8.868097 -4.311368,8.833046 -4.311368,8.833046 0,0 4.591782,-9.008305 4.311368,-8.833046 z"/><path style="fill:none;fill-rule:evenodd;stroke:#000;stroke-width:1px;stroke-linecap:butt;stroke-linejoin:miter;stroke-opacity:1" id="path1372-0" d="m 28.71,0 c 4.241264,8.868097 4.311368,8.833046 4.311368,8.833046 0,0 -4.591782,-9.008305 -4.311368,-8.833046 z"/><path style="fill:none;fill-rule:evenodd;stroke:#000;stroke-width:1px;stroke-linecap:butt;stroke-linejoin:miter;stroke-opacity:1" id="path1372-0-4" d="M 641.16695,372.66137 C 650.03505,368.42011 650,368.35 650,368.35 c 0,0 -9.00831,4.59178 -8.83305,4.31137 z"/><path style="fill:none;fill-rule:evenodd;stroke:#000;stroke-width:1px;stroke-linecap:butt;stroke-linejoin:miter;stroke-opacity:1" id="path1372-0-4-8" d="M 641.16695,364.03863 C 650.03505,368.27989 650,368.35 650,368.35 c 0,0 -9.00831,-4.59178 -8.83305,-4.31137 z"/></svg>